<?xml version="1.0" encoding="utf-8"?>
<!-- Generator: Adobe Illustrator 26.1.0, SVG Export Plug-In . SVG Version: 6.00 Build 0)  -->
<svg version="1.1" xmlns="http://www.w3.org/2000/svg" xmlns:xlink="http://www.w3.org/1999/xlink" x="0px" y="0px"
	 viewBox="0 0 595.3 841.9" style="enable-background:new 0 0 595.3 841.9;" xml:space="preserve">
<style type="text/css">
	.st0{display:none;}
	.st1{display:inline;}
	.st2{fill:#FFFFFF;}
	.st3{opacity:0.19;fill:#FFFFFF;}
	.st4{fill:#C59177;}
	.st5{fill:#C59177;stroke:#C59177;stroke-miterlimit:10;}
	.st6{fill:#020304;}
	.st7{fill:#C29173;}
	.st8{fill:#8D6C15;}
	.st9{fill:#C49076;}
	.st10{fill:#020203;}
	.st11{opacity:0.63;fill:#935952;}
	.st12{fill:#9F6758;}
	.st13{opacity:0.62;fill:#935952;}
	.st14{opacity:0.57;fill:#9F6758;}
	.st15{fill:none;stroke:#020304;stroke-width:0.5;stroke-linecap:round;stroke-miterlimit:10;}
	.st16{fill:#814031;}
	.st17{fill:#010202;}
	.st18{fill:none;stroke:#020304;stroke-miterlimit:10;}
	.st19{opacity:0.37;fill:none;stroke:#020203;stroke-linecap:round;stroke-miterlimit:10;}
	.st20{fill:none;stroke:#020203;stroke-linecap:round;stroke-miterlimit:10;}
	.st21{fill:#99AAAF;stroke:#020304;stroke-width:0.4;stroke-miterlimit:10;}
	.st22{opacity:0.36;fill:#585554;}
	.st23{opacity:0.35;fill:#575454;}
	.st24{fill:none;}
	.st25{fill:#4A4848;}
	.st26{fill:#FAFAFA;}
</style>
<g id="Calque_1" class="st0">
	<g class="st1">
		<defs>
			<path id="SVGID_1_" d="M344.4,310.7c1.5,1.4,3.7,3,4.4,6c1.3,5.7-3.8,12.3-4.4,12.1c-0.3-0.1,0.2-2.3,0.7-2.3
				c0.7-0.1,1.8,4.1,2,7.7c0.1,1.1,0.2,2.2,0,3.7c-0.6,5.3-3.4,6.9-5,13.1c-0.5,1.9-0.2,1.7-0.7,3.7c-2,8.6-7.5,11-7,13.4
				c0.8,4.4,20.6,7.4,67.5,4c24.5-1.7,28.4-3.2,34.2,0c22.6,12.6,15.8,64.8,14.1,79.2c-3.9,33.9-16.8,145.4-104.4,183.9
				c-109.2,48-249-55-246.7-113.8c1.8-45.7,92.7-144.3,95.3-155.1c0.2-0.6,0.8-4.1,3.4-7.7c2.5-3.4,3.9-3,5.4-5.7
				c2.4-4.4,0.6-9.8-0.3-12.8c-1-3-1.8-3.9-3-6.4c0,0-2.6-5.7-2.7-15.8c0-8.9,4.4-28.5,15.1-40.9c32-37,119-8.3,123.9,11.7
				C336.9,292.6,336.9,303.6,344.4,310.7z"/>
		</defs>
		<clipPath id="SVGID_00000032626555845637025520000000036797504501235647_">
			<use xlink:href="#SVGID_1_"  style="overflow:visible;"/>
		</clipPath>
		<g style="clip-path:url(#SVGID_00000032626555845637025520000000036797504501235647_);">
			
				<image style="overflow:visible;" width="507" height="492" xlink:href="../../../../../Downloads/rrr-removebg-preview.png"  transform="matrix(0.6501 0 0 0.6501 118.5318 263.1858)">
			</image>
		</g>
	</g>
</g>
<g id="Calque_4">
	<path class="st2" d="M145.5,481.1c-8.8,8.1-18.7,7.1-32,10.9c-16.3,4.7-20.1,4.5-27.1,8c-3.3,1.6-10.2,5.5-28.1,30.1
		c-13.2,18.1-21.1,35.1-36.9,69c-0.8,1.7-2.2,4.9-2.1,9.1c0.2,5,2.5,10,14.1,21.1c10,9.6,17.4,14.6,29.2,22.5
		c11.3,7.6,14.9,9,19,8.4c3.4-0.5,6.9-2.4,10.9-0.7c0,0,0,0,0,0c0,0,3.1,0.9,5.3,5.1c4.2,8.1,5.3,63.2,5.3,63.2
		c0.3,18.4,0.5,27.6,3.9,32.7c8.8,13.2,26,9,104.1,6.6c18.2-0.6,63.8-1.7,89.2-7.3c0.7-0.2,23.8-5.2,23.8-5.2c0,0,2.5-19.9,2.7-22.5
		c3.3-48.3,8.7-97.5,13-109.3c0.7-2,2.5-5.8,2.5-11.3c0-4.9-1.4-7.2-0.4-8.4c2.4-2.5,13.7,5.3,16.5,7.3
		c38.9,27.3,42.5,31.6,49.4,30.8c15.9-1.9,25.3-27.9,26.2-30.4c1.2-3.4,0.5-2.5,4.9-32.3c2.3-15.7,2.8-18.1,1.4-21.8
		c-3.8-9.7-14.9-11.8-30.2-17.4c-29.4-10.8-22.7-15.5-52.7-26.9c-26.7-10.1-36.2-8-48.2-19.6c-2.6-2.6-7.1-7.4-14.8-10.9
		c-10.1-4.5-19.2-3.7-23.1-3.5c-5.8,0.4-24.9-1.7-63-5.9c-31.9-3.5-47.7-7.5-57.3,2.5C148.6,477.2,148.6,478.3,145.5,481.1z"/>
	<path class="st3" d="M227.6,115.5c-2.6,0.6-4.8,1.2-6.5,1.6l-7.6,4.8l-8.1,5.1L193,138.2c-0.5,0.7-1.4,1.9-1.1,2.3
		c0.2,0.3,1.3-0.2,2.1-0.7c3-1.7,4.5-2.5,6-3.9c2.5-2.3,12.2-10.5,22.7-14.6c1.2-0.5,6.4-2.5,6.9-1.5c0.5,0.8-2.9,3.2-9.4,9.2
		c-8.7,7.9-7.1,7.6-15.4,15.1c-2.1,1.9-4.8,4.2-4.5,4.7c0.3,0.4,2.6-0.8,3.4-1.2c6.7-3.5,10.5-8.2,16.8-14.1
		c5.6-5.2,11.1-9.5,11.1-9.5c0,0-0.5,0.5-0.5,0.5c0,0,1.9-1.8,3.7-3.1c1.2-0.9,2.8-1.8,6.5-3.1c4.9-1.7,9-2.4,10.2-2.6
		c2.4-0.4,7.6-1.2,14.9-1.2c7.7,0,12.9,0.8,13,0c0.1-0.5-1.6-1.2-2.6-1.6c-2.6-1.1-4.9-1.2-5.6-1.3c-4.7-0.3-8.7,0-9.9,0.1
		c-9,0.6-7.4,0.4-10.4,0.6c-3.8,0.3-7.2,0.6-11.7,1.2C236.7,113.7,232.6,114.3,227.6,115.5z"/>
	<path class="st3" d="M238.8,141.9c0.4,0.1,1.4,0.3,2.5,0c1.1-0.3,1.8-1,2-1.3c4.2-1.7,8.4-3.4,12.5-5.1c7.1-1.8,14.1-3.5,21.2-5.3
		c-3.3,1.4-6.5,2.8-9.8,4.2c-3.9,1.7-7.9,3.5-11.8,5.2l-3.6,3.5c2.5-0.6,5.3-1.5,8.2-2.6c1.5-0.6,3-1.2,4.3-1.9
		c2.3-0.7,4.6-1.5,6.8-2.2c2.7-1.6,5.1-2.7,7.1-3.4c1.9-0.8,4.3-1.7,7.5-2.2c0,0,0.8-0.2,6.1-0.8l0,0l6.6,0.6l15.2,1.9
		c0,0,3.2,1.8,2.9,1.7c-0.3-0.1-18.1,0.7-18.1,0.7s-1.9-0.5-6.6,0.7c-4.8,1.2-9.4,1.7-9.4,1.7l-3.3,1.8v1.6c2.3-0.4,4.6-0.7,6.9-1.1
		c6.6-1,13.1-1.7,19.4-2.4c4.9,0.2,9.8,0.5,14.6,0.7c2.1,0.5,4.2,0.9,6.2,1.4c1.6,0.9,3.3,1.8,4.9,2.8c0,0,1.9,0.7,3.8,1.4
		c2,0.7,4.7,4.9,5.1,5.1c0.4,0.3,3,4.1,3,4.1c1.4,0.6,2.6,0.6,2.9,0c0.3-0.5-0.1-1.4-0.2-1.7c-0.2-0.4-0.4-0.7-0.4-0.8
		c-0.4-0.6-1-1.4-1.7-2.6c-1-1.7-2-3.4-3-5.2c-1.3-0.7-2.6-1.3-3.9-2c-2.5-1.4-4.9-2.8-7.4-4.2c-1.8-1.2-3.6-2.4-5.4-3.6l-5.1-2.8
		l-7.5-1.7l-9.3-0.7c0,0-6.6-0.9-9.2-1.2c-2.5-0.3-16.4,0.8-16.4,0.8c-2.3,0.3-4.7,0.6-7,0.9c-3.4,0.5-6.1,1.2-8,1.8
		c-6.1,1.8-11.1,4.1-15.4,6.1c-1.2,0.6-5.6,2.6-5.6,2.6l0,0c-0.3,0.1-1.3,0.5-1.8,1.5C238.8,140.9,238.8,141.5,238.8,141.9z"/>
	<path class="st3" d="M270.9,154.7c1.5-0.8,4.2-2.2,7.4-3.2c1.4-0.4,4-1.1,10.2-1.3c5.8-0.2,12.1-0.4,19.8,1.5
		c4.5,1.1,6.5,2.2,7.7,2.9c3.1,1.9,2.1,2.4,6.4,5.5c1.1,0.8,2.4,1.7,2.7,3.3c0.1,0.7,0.1,1.9-0.6,2.3c-1.1,0.7-3.4-1.2-5-2.5
		c-1.5-1.3-1.4-1.5-3.1-2.8c-1.4-1.2-2.7-1.9-3.6-2.5c0,0-1.7-1-3.3-1.8c-3.3-1.6-6.9-1.4-14.4-1.8c-6.3-0.3-5.8-0.5-7.8-0.4
		c-2.3,0.1-6.1,0.4-10.4,2.2c-0.4,0.2-2,1.1-5.2,2.8c-3.8,2.1-5.7,3.1-6.8,4c-2,1.6-2.1,2.1-5,4.3c-2.1,1.7-3.8,2.9-4.3,2.5
		c-0.6-0.5,0.3-2.9,1.2-4.6c0.6-1.1,1.8-2.8,8.5-7.3C267.6,156.6,268.9,155.8,270.9,154.7z"/>
	<path class="st3" d="M285.6,165.2c1.9-0.3,5.6-0.9,9.8-0.1c2,0.4,3.1,0.9,4.7,1.8c1.3,0.7,3.1,1.6,3,2.5c-0.1,0.8-1.6,1.1-2.2,1.3
		c-3.8,0.9-6.8-0.6-9.8-1.3c-3.5-0.9-6.7-0.3-13.1,0.7c-3.5,0.6-6.5,1.1-10.2,2.7c-1.9,0.8-5.6,2.4-9.1,5.6c-1.1,1-2.5,2.5-5.1,4.6
		c-1.8,1.5-1.7,1.3-2.8,2.2c-3.1,2.7-3.8,4.5-5.1,4.3c-0.9-0.1-1.8-1-2-2c-0.3-1.3,0.3-3.7,9.3-10.3c9.1-6.7,13.7-10.1,20-11.3
		C277.9,165,278,166.3,285.6,165.2z"/>
	<path class="st3" d="M140.4,213.1c-0.2,0-2.5,0.2-5.2,1.1c-0.9,0.3-3.6,1.2-3.5,1.9c0,0.1,0.2,0.7,4.2,1c4.1,0.3,6.1,0.4,10.2-0.6
		c8.8-2,14.2,3.2,28.3,2.2c8.7-0.6,19.1-3.5,19.2-6.8c0.1-1.1-1-2.1-1.7-2.5c-2.8-1.6-5.7,2.1-12.1,4.2c-4.4,1.4-8.2,1.3-15.5,1
		c-2.2-0.1-4.2-0.3-8.2-0.7C151.6,213.5,145.9,212.8,140.4,213.1z"/>
	<path class="st3" d="M355.9,167.5c0.8,1.1,3.4-0.2,6.3-0.6c3.5-0.5,6.2,0.5,8.2,1.1c5.4,1.9,8.9,5.8,10.3,7.6
		c3.1,4,3.7,7.5,5.4,7.4c1-0.1,1.9-1.4,2.1-2.6c0.5-3.1-3.6-6.2-6.7-8.6c-3.6-2.7-5.3-4-6.9-4.6c-1-0.3-2.5-0.7-2.6-1.7
		c-0.1-0.7,0.5-1.7,1.3-1.9c0.6-0.2,1.1,0.3,2.2,1c2.6,1.7,2.8,1.1,4.7,2.5c1.4,1.1,1.8,1.9,2.5,1.7c0.7-0.2,1.2-1.4,1-2.4
		c-0.3-1.3-1.8-1.3-4.2-3c-2-1.4-1.6-1.9-3.1-2.8c-2.8-1.8-6.1-1.4-6.9-1.3c-0.9,0.1-2.6,0.7-5.8,2c-0.6,0.2-1.6,0.6-2.8,1.3
		c-0.9,0.5-0.8,0.5-1.8,1.1c-2.2,1.3-3,1.3-3.3,2.2C355.7,166.4,355.6,167.1,355.9,167.5z"/>
	<path class="st3" d="M350,184.8c0.1-1.3,2.9-2.2,5-2.3c0.7,0,3.3-0.1,6.9,2.2c3.8,2.4,5.7,5.6,7.2,8c1.1,1.9,6.2,10.3,3.6,15.2
		c-0.2,0.4-0.7,1.4-1.5,1.4c-1,0-1.6-1.7-3.3-5.3c-3.5-7.6-3.6-6.5-4.3-9.1c-0.3-0.9-0.7-2.5-1.9-4.2c-0.6-0.8-1.2-1.7-2.4-2.3
		c-1.1-0.5-1.4-0.2-3.7-0.4c-3.3-0.3-4.3-1.2-4.6-1.5C350.6,186,350,185.4,350,184.8z"/>
	<path class="st3" d="M291.2,104.9c-1.6,0.9-3.6-1.7-6.8-3c-1.4-0.6-1.8-0.4-8.1-0.5c-9.4-0.1-9.1-0.6-11.1-0.1
		c-2.6,0.7-6,2.2-8.5,3.3c-1.1,0.5-3,1.4-5.4,1c-0.6-0.1-2.5-0.4-2.6-1.2c-0.2-1.6,7.6-4,14-5.9c3.8-1.2,5.4-1.5,6.9-1.6
		c3.9-0.5,7.1-0.1,8.8,0.2c1.9,0.3,3.7,0.9,7.2,2.1c0,0,1.9,0.6,4.3,2.1c1.7,1,2.3,1.7,2.2,2.3C292.1,104.1,291.7,104.6,291.2,104.9
		z"/>
	<path class="st3" d="M210.9,103.5c-0.3-1.4,4.7-4.5,9.7-5.4c2.1-0.4,3.1-0.2,7,0c5.7,0.3,11.1,0.6,16.9,0c4.5-0.5,7.8-1.3,10.5-2
		c7.8-2,8.7-3.5,13.8-4.4c6.6-1.2,11.9-0.1,14.4,0.4c9.3,2,17.9,7.6,17.3,9.1c-0.2,0.7-2.4,0.6-3.4,0.5c-5.6-0.4-7.6-3.8-12.4-6.2
		c-6.1-3.1-13.8-3.1-19.3-0.4c-2.5,1.2-2.2,1.8-5,3.3c-6.6,3.5-13.2,2.8-16.4,2.6C225.4,99.7,211.5,105.8,210.9,103.5z"/>
	<path class="st3" d="M313.1,112.2c1-1.2,5.5,3,13.1,4.8c6.5,1.5,7.3-0.6,12,1c6.6,2.3,10.3,8.1,12.5,11.6
		c4.9,7.7,5.9,15.7,5.4,15.9c-0.5,0.2-2.7-7.6-9.1-15.2c-2.1-2.6-4.5-4.8-7.4-6.8c-0.5-0.3-2.3-1.5-4.3-2.5
		c-9.4-4.5-16.4,0.1-20.7-4.7C313.4,114.8,312.6,112.8,313.1,112.2z"/>
	<path class="st4" d="M196.7,225.7c6.3-2,11.6-0.9,13.3-0.7c11.1,1.3,18.9-20.7,33.9-31.4c13.6-9.7,29.6-7.3,61.6-2.5
		c21.6,3.2,32.5,5.1,41.3,14.8c6.6,7.3,14.8,22.1,12.4,36.9c-0.9,5.8-2.9,8.2-2.1,14c1.3,9.3,7.7,11.7,10.7,20.5
		c2.3,6.9,0.6,12.1-1.2,22c-3.6,19-1.6,21.9-4.1,40.3c-4.2,30.4-7.8,57.1-24.3,83.5c-18.8,30-44.5,44.2-61.9,53.8
		c-19.9,11-31.8,17.5-48,16.1c-19.9-1.8-33-14.5-56.8-37.5c-13.7-13.2-26-25.4-34.1-45.9c-3.9-9.9-5-18-7.4-34.4
		c-3.2-22.8-7.2-52.8,0.6-88.5c3.1-14.4,4.7-21.6,9.2-27.6c12.5-16.5,35.5-20.7,50.7-30.5C191.3,228.1,193.5,226.7,196.7,225.7z"/>
	<path class="st5" d="M238.6,271.6c0.5,2.2,1.1,5.7,0.6,10.1c-0.5,4.1-1.9,7.3-2.9,9.2"/>
	<ellipse class="st6" cx="190.7" cy="311.6" rx="4.3" ry="4.4"/>
	<path class="st7" d="M195.1,484.1c-6.2-1.1-20.9-3.5-23.3,1.5c-2.5,5.2,9,16.4,16,22c29.8,23.7,82,30.2,98.4,8.2
		c3.7-5,7-13.2,4.1-18.6c-3.5-6.6-14.9-6.5-27.9-6.3c-20.6,0.3-21.4,5.4-34.2,4C214.6,493.2,213.4,487.2,195.1,484.1z"/>
	<path class="st8" d="M280.5,520.6c-10.4,6-20.5,6.2-29.9,6.4c-28.4,0.5-40.5-19.3-58.3-12c-1.2,0.5-6.8,2.8-6.9,6.1
		c-0.1,3.7,6.7,5.1,17,12.7c2.6,1.9,6.5,5.5,14.3,12.7c8.8,8.2,13.2,12.3,15,14.8c6.3,9.2,6.1,19.5,6,26.8
		c-0.3,32.1,0.6,96.6,1.4,107.5c0.2,2.5,1,10.4-0.3,16.7c-0.5,2.3-1,3.3-0.8,5.4c0.2,2.4,1.3,4.7,0.1,7.3c0,0,0,0,0,0l0,0
		c-2.5,9.7-1.9,31.2-1.9,31.2c0,0.7,0,2-0.3,3.6c-0.4,2.1-1,2.5-0.9,3c0.8,3.9,44.4-2.1,44.3-2.7c0-0.1-0.8-0.1-0.8-0.3
		c0-0.2,0.8-0.5,0.8-0.4c0,0-0.6,0.5-0.8,0.4c-0.5-0.3,1.5-3.4,1.5-6.2c0-3.1,0.8-6.1,0.5-9.2c-0.8-6.5,0.7-13.7,1.7-32.3
		c2.5-45.6,1.5-81.1,1.5-81.1c-0.5-18.9-1.6-31.4,0.9-49.9c1.6-12.1,2.4-18.1,5.1-25.5c3.7-10,7.5-14.3,8.4-24.4
		c0.2-1.8,1.5-15.3-3.7-17.6C291.1,512.2,287.1,516.8,280.5,520.6z"/>
	<path class="st9" d="M28.2,637.5c-3.5,2.3-1.2,8.6-2.2,19.8c-1.4,16.7-7.7,16.6-11.5,34c0,0-3.2,14.5,0.2,49.2
		c0.1,0.8-1.4,9.7,0.9,10.6c0.7,0.3,2-0.2,1.9-0.2c0-0.1-1.9,0-1.9,0.2c0,0.5,10.8,2.1,21.4,3.2c12.2,1.3,18.2,1.6,20.3,0.8
		c8.2-3.5,8.5-22.5,8.8-41.9c0.3-16.5-1.6-19.5,1.3-27.9c4.1-11.8,10.9-15,9.3-21.3c-1.2-5-6.1-5.6-20.7-13.2
		C37.4,640.9,32.1,634.9,28.2,637.5z"/>
	<path class="st9" d="M478.1,443.6c1.2,4.3,3.1,10.7,5.5,18.4c3.6,11.6,4.2,12.3,4.4,15c0.9,9.2-4,14.7-11.9,28.5
		c-5.3,9.2-8.7,16.9-15.4,32.1c-5.7,12.8-9.4,21.4-12.6,33.4c-5.6,20.9-1.6,22.6-7.2,32.5c-7.1,12.4-17.4,16.7-16,25
		c0.6,3.8,3.4,6.2,5.5,8.1c9.5,8.3,27.1,9.3,38,1.2c6.1-4.5,4.2-7.4,17.2-25.6c6.9-9.7,7.9-9.6,10.5-14.1c5.5-9.5,4.9-17.1,5.3-38.9
		c0,0,0.8-47.3,10.9-61.4c2.6-3.6,5.9-6.2,5.9-6.2c4.1-3.3,8-4.6,9.2-5c9.6-3.5,11.5-12.2,24.4-21c5.3-3.6,20.9-12.9,30.2-15.3
		c1-0.3,4.6-1.1,6-4c0.7-1.3,1.2-3.7,0.2-5.2c-0.9-1.3-3.5-2.9-23,1.8c-10.5,2.5-14.8,4.2-15.4,3c-1.1-2.1,9.5-10.2,10.7-11.1
		c11.3-8.6,17.7-9.2,22-17.1c0.6-1.2,3.4-6.3,1.8-8.3c-2.4-2.9-12.6,2.4-18.1,5.2c-16.3,8.4-23.2,16.4-25,14.9
		c-1.9-1.6,2.7-13.4,10.7-23c7.4-8.9,14-11.3,15.4-19.7c0.5-3.2,0.4-8.3-2-9.5c-1.5-0.8-3.8,0.1-7.4,3c-12.3,9.9-14.2,22.7-26.5,32
		c-2.1,1.6-4,2.7-5.3,2c-3.3-1.8-0.2-14.5,0.8-18.5c4-16.5,10.2-23.1,6.8-29.6c-0.3-0.6-2.1-4-5.3-4.6c-2.8-0.6-5.3,1.2-6,1.8
		c-5.2,3.9-5.3,12.3-6.6,22.4c-0.8,6.2-4.6,30.3-14.8,35.7c-0.9,0.4-2.7,1.4-4.7,0.8c-3-0.9-3.7-4.4-6.6-10.3c-1.6-3.2-4-8-8-12.1
		c-1.6-1.7-7.3-7.5-10.9-5.8c-2.4,1.1-2.8,5.2-2.9,6.2c-0.7,7.3,4.2,12,7.2,17.7C477.6,423,480,431,478.1,443.6z"/>
	<path class="st9" d="M112.8,280.2c0.3-0.6,1.4-0.9,1.6-0.6c0.6,0.9-11.7,6.3-16.7,16.6c-3,6.2-1.1,17,2.7,38.7
		c1.8,9.9,2.9,14.4,5.1,19.5c5.6,12.9,12.2,16.9,13.9,17.9c2.9,1.6,7.1,3.9,9.6,2.2c4.1-2.8-1.6-12.5-2.2-28.8
		c-0.6-19.9,7.1-29.9,1.6-43.6c-2-4.9-4.1-8.1-4.1-8.1C119,285.9,111.9,282.2,112.8,280.2z"/>
	<path class="st9" d="M370.5,313.4c3.7-1.6,10.2-4.5,15.4-1.7c1,0.5,4.5,2.6,6.7,11.1c3.3,12.7-0.2,24-3.8,34.8
		c-5,15.3-11.3,24.6-13.1,27.2c-6,8.6-13.1,18.8-20.4,17.6c-5.2-0.9-10.1-7.4-9-11c0.6-1.8,2.5-2.3,4.2-3.4
		c3.1-1.9,5.6-5.6,8.3-21.6c3-17.5,1.6-22.6,4.3-31.6c1-3.3,2.1-5.5,2.2-9.5c0.1-3.9-0.8-6.3,0.7-8.8
		C366.6,315.9,367.5,314.8,370.5,313.4z"/>
</g>
<g id="Calque_3">
	<path class="st10" d="M133.5,264.3c3-3,5.4-1.8,12.7-3.8c1.8-0.5,17.6-5.1,28.1-18.8c4.3-5.7,3.1-6.7,6.2-8.9
		c4.5-3.2,7.7-2,26.9-3.5c3.4-0.3,11.4-1,11.4-1l0,0c0,0-22.3,12.1-21.3,14.6c0.6,1.6,11.6,0.9,20.7-5.4c9.2-6.3,8.9-13,17.3-25.5
		c5.3-7.8,15.2-22.1,32.2-26.8c4.2-1.2,19.2-5.4,30.3,2.2c4.1,2.8,6.2,6.3,12.1,8c6.8,2,10.6-0.7,15.1-0.6
		c17.8,0.1,31.3,41.8,32.2,44.4c5.6,17.6,5.9,31.8,6.2,52.4c0.5,34.5-3.8,60-1.5,60.4c2.3,0.4,1.9-28.7,21-48.5
		c4.4-4.5,9.4-8.2,12.8-16.3c3.9-9.4,0.7-12.9,4.5-23.6c4.3-12.2,9.9-11.6,11.3-20.8c1.4-9.1-4-10.4-4.8-24.7
		c-0.5-9.4,1.7-10.8,1-21c-0.3-4.3-0.8-11.5-4-18.8c-6.6-15.1-23.7-28.6-36.2-31.3c-1.4-0.3-4.8-0.9-7.1-3.8
		c-3.2-4-1.3-8.8-1.9-12.8c-1.5-10.5-20.2-12.6-43.6-23.6c-24.9-11.7-23.3-18.6-35.6-18.8c-15.6-0.3-19.7,10.7-39.3,9.6
		c-9.2-0.5-12.3-3.2-20.7-1.6c-10,1.9-12.3,6.8-21.6,11.8c-22.3,11.9-38-1.3-48.9,11.2c-3.3,3.9-5.8,9.7-9.3,17.9
		c-3.9,9.1-2.6,9-4.9,13.7c-7.2,14.3-18.1,13.4-24.4,27.8c-1.1,2.5-2.9,6.7-2.8,12.1c0.1,8.7,4.6,10.3,4.8,17.2
		c0.3,10-9.1,11.7-9.3,22.1c-0.2,7.4,4.5,7.7,6.4,18.4c1.8,9.7-1.6,11.6-0.3,21.7c1,7.8,3.3,8.8,7.7,20.8c6.2,16.8,6.3,27.3,8,27.1
		c2.2-0.1,4.8-17.6,5-33.9C129.9,274.7,129.3,268.5,133.5,264.3z"/>
	<path class="st10" d="M516.9,207.8"/>
</g>
<g id="Calque_6">
	<path class="st2" d="M195.5,423.9c2.1,2.1,5.1,4.9,9.2,7.5c9.9,6.5,19.3,7.9,27,9.1c8.8,1.3,18.3,2.6,29.7-0.8
		c9.2-2.8,21.4-9.2,20.6-13.2c-0.9-4.2-15.3-1.4-39.8-4.7c-30.8-4.1-49.5-14-52.2-9.1C189.1,414.3,189.6,417.3,195.5,423.9z"/>
	<path class="st11" d="M369,342.2c0.5-1.5,1-2.5,1.8-3.4c0.8-1.1,2.9-3.2,4.3-2.9c2.9,0.6,4.4,11.8,2.6,22
		c-0.7,4.1-2.9,16.6-12.7,22.7c-2.8,1.8-7.8,3.9-9.3,2.3c-1.5-1.7,2.1-5.7,6.8-18.4c3-7.9,4.4-11.9,4.8-15
		C367.6,346.3,368,344.9,369,342.2z"/>
	<path class="st12" d="M372.1,335.6c-0.3-0.2,1.7-4.3,5.4-7.9c3.2-3.1,7.7-5.9,8.5-5c0.5,0.5-0.3,2.2-1.2,3.3
		c-1.4,1.8-3.3,2.1-4.8,2.7C374.7,330.6,372.4,335.9,372.1,335.6z"/>
	<path class="st13" d="M120.5,308.7c-0.1-1.6-0.2-2.7-0.7-3.8c-0.5-1.3-1.9-4-3.3-4.1c-2.9-0.3-7.5,10-8.7,20.3
		c-0.5,4.1-1.9,16.8,5.7,25.6c2.2,2.6,6.3,6.1,8.2,5c1.9-1.1-0.4-6.1-1.3-19.6c-0.6-8.5-0.9-12.7-0.3-15.8
		C120.7,313,120.6,311.6,120.5,308.7z"/>
	<path class="st14" d="M117.1,301c-0.3,0.2-3.2-6.5-6.2-6.2c-0.3,0-0.3,0.1-0.6,0.1c-2.5-0.2-4.7-6.1-3.7-6.9
		c0.9-0.7,4.7,2.4,7.1,5.5C116.6,297.2,117.4,300.9,117.1,301z"/>
	<path class="st15" d="M215.9,374.4c-4.3,5.3-4.6,7.9-3.9,9.4c1.4,2.9,6.5,0.8,11.5,4.9c3.7,3,2.7,5.4,6.6,8.1
		c0.7,0.5,5.3,3.6,10.2,2.4c5-1.2,5.3-5.5,10-5.9c3.2-0.3,4,1.5,7.1,0.8c4-0.9,6.1-4.4,6.3-4.8c2.6-4.6,0.5-9.4,0.3-9.8"/>
	<path class="st2" d="M172.7,297.2c-8.3,1.2-12,2.9-14,6.3c-1.8,3-2.2,7.4-0.7,10.8c2.3,5,8.7,6.6,21.5,9.6c2.6,0.6,8.3,1.4,19.8,3
		c8.7,1.2,11.5,1.5,14.8-0.1c3.6-1.8,7.8-5.8,8.1-10.7c0.5-7.8-9.3-13.6-12.9-15.7C197.8,293.5,186.3,295.2,172.7,297.2z"/>
	<path class="st2" d="M295.1,310.1c-8.5,0-12.5,1.6-13.5,2.1c-1.9,0.8-11.7,5.1-11.8,12c0,6.1,7.6,10.2,8.9,11
		c3.4,1.9,5.1,1.6,17.4,3c7.6,0.9,7.1,1,14.7,1.8c13.9,1.5,15.8,1.1,17.6,0.5c4.8-1.8,11.1-6.6,10.9-11.7
		c-0.2-6.5-11-10.7-20.3-14.3C316,313.3,307,310.1,295.1,310.1z"/>
</g>
<g id="Calque_7">
	<path class="st16" d="M182.3,300.4c-4.7,3.6-6.6,11.5-3.3,17.7c3.5,6.6,11.7,9.2,18.1,6c5.5-2.8,8.5-9.2,7.4-14.7
		C202.7,300.2,189.6,294.9,182.3,300.4z"/>
	<path class="st16" d="M294.3,314.6c-4.7,3.6-6.6,11.5-3.3,17.7c3.5,6.6,11.7,9.2,18.1,6c5.5-2.8,8.5-9.2,7.4-14.7
		C314.7,314.4,301.6,309.1,294.3,314.6z"/>
	<ellipse class="st17" cx="190.7" cy="312.3" rx="6.2" ry="6.4"/>
	<ellipse class="st17" cx="303.1" cy="326" rx="6.2" ry="6.4"/>
	<path class="st18" d="M208.5,300.6c-1.8-0.8-3.4-1.1-9-1.7c-3.7-0.4-5.5-0.6-9.3-0.8c-14.1-0.9-16.9-3.2-24.8-1.6
		c-4.8,1-6.6,2.5-7.6,3.6c-2.8,3.1-3.6,7.6-3,10.8c1.5,8.1,12.6,11.5,18.2,12.1c0.1,0,1.6,0.1,4.6,0.3c8.7,0.6,9.6,0.6,11.3,0.9
		c4.9,0.7,5.7,1.5,9.4,2.2c3.2,0.6,15.4,2.9,19.6-3.4c3.3-4.8,0.6-12.9-2.8-17.2C212.6,302.6,209.5,301.1,208.5,300.6z"/>
</g>
<g id="Calque_2">
	<path class="st10" d="M188.1,308.3"/>
	<path class="st19" d="M189.7,421c11,4.8,27.5,10.5,48.4,12.1c17.9,1.4,32.9-0.7,43.6-3.1"/>
	<path class="st20" d="M282.8,429.1"/>
	<path class="st21" d="M485.3,492.5c1.2,2.4,6.2-0.9,12.2,1.2c5.7,2,7.3,7.2,11,6.2c1.1-0.3,2.4-1.2,3.1-2.4c1-1.7,0.6-3.7,0.4-4.4
		c-1.5-7.2-19.8-14.1-24-9.2c-0.6,0.7-1.4,2.2-2,3.9C485.2,489.8,484.7,491.4,485.3,492.5z"/>
	<path class="st15" d="M500.1,485c-0.3-0.1-0.6-0.3-1.1-0.3c-1.7-0.1-3.3,1.7-3.8,3.4c-0.1,0.4-0.4,1.6,0.1,2.8
		c0.3,0.7,0.7,1.1,1,1.3"/>
	<line class="st15" x1="496.8" y1="487.6" x2="499.9" y2="489.2"/>
</g>
<g id="Calque_8">
	<g transform="translate(0.000000,1286.000000) scale(0.100000,-0.100000)">
		<path class="st10" d="M2653.1,11934.8c-8.2-1-28-5.8-43.3-9.4c-48.9-12.6-95.8-18.9-209-26.2c-154.5-10.5-185-18.9-395.1-110.1
			c-98.4-42.5-168.2-65-221.2-71.3c-54.5-6.3-163.1-33-217.2-54.5c-93.3-35.7-148.3-100.1-193.7-225.4c-10.2-28.8-25-64-31.6-78.6
			c-28.5-57.7-90.7-142.1-174.9-235.9c-53-59.8-79-97-90.2-131.6c-11.7-35.7-6.1-104.3,15.8-192.9c27-108,26-114.3-30.1-185.6
			c-25-32-24-53.5,5.6-142.6c32.6-100.7,42.8-149.9,42.8-215c0-87.6-20.9-135.3-96.9-223.3c-40.3-46.7-58.6-80.2-66.3-122.2
			c-8.2-45.1-6.1-252.2,3.1-326.6c9.2-75.5,35.2-183.5,57.6-241.7c55.1-142.1,121.3-225.4,205.9-257.4c54.5-21,64.2-40.4,77.5-163.6
			c12.2-112.2,38.2-201.3,84.6-289.4c49.4-94.9,102-165.7,230.9-308.8c52-58.2,93.3-107,90.7-108.5c-2-1-29.1-7.3-59.6-13.1
			c-106.5-21-148.3-41.9-214.1-107.5c-62.7-61.9-104.5-78.1-328.8-126.4c-140.7-30.4-225.8-54.5-272.7-78.6
			C704.2,7828.5,603.3,7687,381,7267c-160.1-302-197.8-378-218.7-439.9c-14.8-44-12.7-62.4,10.7-94.9c25-34.6,26-50.3,5.1-100.7
			c-24-58.2-22.4-67.6,22.4-111.7c22.9-22.5,39.3-43,41.8-52.4c11.7-48.8-43.3-260.6-104.5-399c-35.2-80.7-45.4-113.8-51.5-170.4
			c-10.2-90.2,15.3-475,35.7-551c11.7-42.5,48.9-64,71.4-40.9c9.2,9.4,10.7,15.2,8.2,30.9c-21.9,131.1-47.9,473.4-41.3,545.8
			c5.1,52.4,10.7,70.3,48.4,152c44.4,97,68.3,175.1,81.6,262.7c14.3,95.9,15.8,102.2,31.1,100.1c6.6-0.5,61.7-25.7,121.8-55.6
			s132.5-62.9,160.6-73.4c73.9-27.3,114.7-49.3,114.7-61.9c0-17.3-9.2-29.4-27.5-35.7c-18.4-6.3-29.6-2.6-69.3,21l-17.8,10.5
			l-9.7-11.5c-12.2-15.7-8.7-51.4,15.3-144.2c26-101.7,33.1-163.1,33.1-271.6c0-111.7-9.2-190.3-33.1-287.3
			c-22.9-92.3-36.2-129.5-51.5-144.7l-12.2-13.1l-50,13.1c-42.3,10.5-61.2,12.6-123.9,12.1c-77-0.5-108.6-6.8-119.3-24.6
			c-13.3-21.5,14.8-26.2,223.8-37.7c123.9-6.8,152.9-6.8,156-1.6c2.5,3.7,13.8,34.1,25.5,67.1c35.7,102.2,46.9,199.2,53,456.1
			c3.6,140.5,9.2,220.2,19.9,261.1c14.3,57.7,74.9,136.3,115.2,148.4c26.5,8.4,56.6-0.5,68.8-19.4c26.5-41.9,59.6-289.9,86.7-652.2
			c16.3-219.2,34.2-304.1,62.7-304.1c18.9,0,21.4,10.5,21.4,86.5c0,149.9-35.2,581.4-59.1,728.8c-4.1,26.2-10.2,62.9-13.3,82.8
			c-12.7,76,8.2,147.3,161.6,564.7c70.9,192.9,100.4,285.2,103,325.1c3.1,39.8-1.5,46.7-33.1,50.9c-16.3,2.1-20.4,1-23.4-6.8
			c-8.7-22.5-141.7-396.9-205.4-578.8c-37.7-108-70.3-198.2-71.9-200.3c-5.6-5.8-117.8,6.3-164.1,17.8
			c-183,45.6-389.5,210.2-555.1,442.5l-15.3,21l137.6,259.5c190.7,358.1,301.8,557.3,363.5,649.1c60.7,90.7,149.4,139.5,337,186.1
			c99.4,24.6,277.3,62.9,279.9,60.3c1.5-1,5.6-23.6,9.7-49.3c11.7-72.4,61.2-184,156.5-351.3c60.2-106.4,138.1-251.1,186.1-346
			c42.8-84.4,66.3-123.2,74.4-123.2c9.2,0,60.2,53,139.7,144.7c112.1,129,142.2,152.6,187.1,147.3c29.6-3.7,39.8-0.5,39.8,12.1
			c0,13.6-22.4,30.4-54.5,39.8c-24.5,7.3-29.6,7.3-54,0c-36.2-11-67.8-40.4-139.2-131.6c-76.5-98.6-107.6-125.8-131.5-116.4
			c-4.1,1.6-8.7,12.1-10.7,23.1c-4.1,29.4-66.8,155.7-168.7,339.7c-141.7,256.4-171.8,325.6-163.1,381.2
			c6.1,39.8,71.9,148.4,86.7,142.6c3.6-1.6,26-32.5,48.9-69.2c102.5-161,208.5-268.4,486.8-493.9c274.3-221.8,294.6-249.6,313-424.7
			c9.2-84.9,15.3-189.8,21.4-364.4c7.6-210.8,3.1-785.9-7.6-993.5c-9.7-189.8-15.8-442.5-11.2-468.2l3.6-19.4h36.7
			c31.6,0,273.2,29.4,277.8,33.6c4.6,5.2,21.9,243.3,26,370.2c17.8,487.1,27,967.3,28,1397.2c0.5,410-1.5,453.5-20.9,467.7
			c-12.7,10-20.4,8.4-24.5-4.7c-2-6.8-5.6-270.5-7.6-586.2c-2.5-315.6-6.6-647-9.7-736.6c-16.8-497-32.6-740.8-51-790.6
			c-8.2-22-44.4-48.8-78.5-58.7c-17.3-5.2-43.8-14.7-59.1-21.5c-32.1-14.7-34.2-15.2-38.2-4.7c-9.2,25.7-13.8,297.3-15.8,925.4
			c-1.5,705.2-3.6,788-20.9,896c-25,152.6-63.2,207.1-255.9,360.7c-117.2,94.4-225.3,195.6-225.3,211.8c0,18.4,31.1,12.1,84.6-16.8
			c59.1-32,98.9-47.7,164.7-65.5c204.4-54.5,481.7-54.5,607.6,0.5c65.3,28.8,98.9,38.8,126.9,39.3c33.1,0,58.6-13.6,66.8-35.7
			c10.7-27.3-10.2-97.5-71.9-242.2c-37.7-88.1-51-157.3-61.2-325.1c-9.2-155.7-31.1-778.1-41.3-1174.4c-7.1-287.8-5.1-594,4.6-604
			c5.1-5.2,7.1-5.2,10.7,0.5c21.9,36.2,38.2,313,51.5,876.1c3.1,122.7,7.6,320.9,10.2,440.4c10.2,434.1,26,658.5,49.4,718.8
			c6.6,17.8,11.2,21.5,33.6,28.3c14.3,4.2,32.1,7.9,39.3,7.9c21.9,0,53-27.8,79-69.2c94.3-152.6,120.3-187.7,136.6-187.7
			c19.4,0,28.5,72.9,32.6,251.7c2.5,136.8-3.1,279.4-14.3,359.1c-3.1,20.4-14.8,66.1-26,101.2c-11.2,35.7-18.9,66.1-17.3,68.2
			c9.7,9.4,162.6-41.4,317.1-105.4c194.7-81.3,363.5-161.5,702-334l197.3-100.7V7289c0-44-15.8-207.1-25.5-260.6
			c-35.7-206-113.7-384.8-208-475c-35.7-34.6-65.8-51.4-90.7-51.9c-20.9,0-83.1,32-156.5,80.7c-52,34.1-407.8,282.1-417.5,291
			c-2,1.6-8.2,70.3-14.3,152.6c-11.7,165.2-20.4,235.4-34.2,277.9c-20.4,62.9-31.6,30.4-37.7-110.1c-9.7-231.2-21.4-372.2-53-634.4
			c-106-875.6-137.1-1198-120.3-1244.2c5.6-14.7,19.9-21.5,33.1-16.3c26.5,10.5,37.7,75.5,61.7,348.1
			c35.2,402.7,123.4,1116.7,140.2,1134.6c6.6,6.8,52-22,285.5-180.4c113.7-77.1,222.8-149.4,242.7-161.5
			c50.5-30.9,75.4-29.9,155.5,7.3c63.7,29.4,87.2,28.8,264.6-5.8c227.9-44.6,284.5-22.5,421.1,162.5
			c166.2,225.4,206.5,346,244.2,736.6c22.9,233.3,65.3,468.7,97.4,537.9c14.8,32,33.6,48.8,71.9,64.5
			c55.6,22.5,107.6,62.9,202.9,157.8c109.1,108.5,151.4,135.3,293.1,186.1c150.4,53.5,197.3,93.3,178.9,151
			c-12.7,38.8-39.3,47.7-115.2,39.8c-49.4-5.2-146.3-24.1-189.6-37.2c-11.7-3.1-22.9-4.7-25-2.6c-10.7,11,52.5,66.6,156.5,136.3
			c65.8,44,113.2,86,125.4,110.1c14.8,29.9-2,91.8-29.6,105.9c-35.7,19.4-87.7,3.1-193.2-59.8c-72.9-43.5-159.6-89.7-168.2-89.7
			c-12.2,0,35.7,78.1,137.1,222.8c86.2,123.2,102.5,168.3,75.4,206c-30.1,41.4-67.3,53-107.6,33c-30.1-15.2-88.2-78.6-158.5-173.5
			c-57.1-77.6-137.6-167.8-148.9-167.8c-8.7,0-8.2,14.7,1.5,42.5c10.7,32,56.1,218.1,65.3,271.6c11.2,60.3,10.7,129-1,152.6
			c-12.2,25.2-35.7,37.7-71.4,38.3c-66.8,0.5-89.7-35.7-134.1-208.7c-53.5-208.1-130.5-395.8-162.6-395.8
			c-13.8,0-36.2,30.4-60.7,82.3c-69.3,145.2-164.1,213.4-245.7,176.2c-30.6-14.2-37.7-24.6-37.2-53.5c0.5-26.7,11.7-52.4,45.4-102.8
			c37.7-56.6,50-99.6,58.6-204.5c11.2-138.9,35.2-248,79.5-359.1c15.8-38.8,31.1-78.1,33.6-87.6c5.1-15.2,0-28.3-76.5-191.4
			c-65.8-141-170.8-372.8-272.2-601.9c-16.8-37.7-42.8-73.4-53-73.4c-7.1,0-8.2,4.7-5.1,36.7c3.6,35.7,3.6,36.2-13.3,55.1
			c-27,29.9-114.2,79.7-360.9,207.1c-414.4,213.4-610.2,300.9-766.7,343.9c-144.3,39.8-203.9,66.6-260.5,118
			c-38.7,35.1-86.7,71.3-99.4,75.5c-25,8.4,0,37.7,78.5,92.8c110.1,77.1,186.1,143.1,251.3,218.1c82.1,94.9,129.5,176.2,164.7,280.5
			c40.8,122.7,48.4,131.6,113.2,135.8c64.2,4.2,89.2,18.3,166.2,95.4c125.4,125.8,196.3,246.9,235.5,404.2
			c21.4,86,27,140.5,24.5,243.8c-2,114.8-5.6,123.2-64.7,178.8c-81.6,76-82.1,92.8-5.6,196.1c34.2,46.1,57.6,98,74.4,163.6
			c21.4,84.9,42.3,146.8,76.5,226c17.8,40.9,36.2,88.6,40.8,105.9c9.7,35.7,7.1,49.3-26,146.8c-23.4,67.6-25.5,109.1-7.1,183.5
			c9.7,39.8,12.2,64,12.2,120.6c0,69.2-0.5,71.8-16.3,104.9c-25.5,53-79,121.6-154.5,199.8c-78.5,81.3-120.8,115.3-186.1,149.9
			c-67.8,36.2-92.3,64.5-145.3,168.3c-46.4,91.2-67.3,119.5-106,139.5c-13.3,6.8-70.9,27.8-128.5,46.7
			c-125.9,41.9-184.5,70.3-280.9,137.9c-129,89.7-192.2,112.7-315.5,115.3C2701.5,11936.9,2661.8,11936.4,2653.1,11934.8z
			 M2866.7,11852c50-13.6,78.5-33.6,146.8-101.2c80.5-80.2,103-92.3,185-101.2c200.3-21.5,302.8-95.9,340-246.9
			c13.8-57.1,31.1-92.3,48.9-99.1c33.6-13.6,47.4-23.1,50-34.6c4.1-16.8-5.1-26.2-30.1-30.4c-25-4.2-34.2-11-34.2-24.1
			c0-11-2-11,76.5-12.1c51.5-0.5,55.1-1,96.9-22c55.1-27.3,93.8-57.7,148.9-116.4c80.5-86,93.8-117.4,88.7-204.5
			c-6.6-107-22.4-173-49.4-204l-15.8-18.4l20.4-20.4c24.5-24.1,31.1-46.7,18.9-65.5c-7.6-12.6-10.2-13.1-33.6-10
			c-20.4,3.1-25,2.1-25-4.2c0-12.1,24-29.4,45.4-32.5c30.1-5.2,51.5-17.3,57.1-32.5c14.3-37.2-24-132.6-69.8-173
			c-31.6-27.8-42.8-56.1-42.8-104.9c0-32-12.2-97.5-22.9-123.2c-3.6-9.4-36.7-73.4-72.9-142.1c-45.9-87-67.3-122.2-69.3-115.3
			c-6.6,22.5-54,250.1-62.7,300.4c-5.6,35.1-9.2,80.7-9.2,126.9v71.8l14.8,15.7l14.3,15.2l-12.2,28.3c-7.1,15.2-27.5,49.3-45.9,75
			c-61.7,88.1-104.5,169.9-140.7,267.9c-28,76.5-53.5,119-100.4,169.9c-44.4,47.2-53.5,60.8-53.5,78.6c0,16.8-14.3,18.9-29.6,4.2
			c-23.4-22-38.2-30.4-55.1-30.4c-24.5,0-35.7,17.8-39.3,62.9c-6.6,82.3-56.6,147.9-149.4,196.1c-104,53.5-211,54-333.4,1
			c-66.8-29.4-122.3-72.4-122.3-94.9c0-8.9,11.2-5.8,66.3,18.4c64.7,27.8,116.2,38.3,191.2,38.3c111.6,0.5,198.3-30.4,266.6-93.3
			c37.7-35.7,45.9-53,34.7-75.5c-4.6-8.9-13.3-18.9-19.4-22c-20.9-11.5-74.4-1.6-180.5,33.6c-149.4,50.3-238.6,68.2-282.4,56.1
			c-50.5-13.6-94.8-53.5-292.1-264.8c-139.2-148.9-162.6-170.4-215.6-195c-74.4-35.7-76.5-35.7-430.2-35.7
			c-317.1,0-346.6-1.6-346.6-17.3c0-7.3,46.9-11.5,140.2-11.5c185.6-0.5,216.7-18.9,148.9-86.5c-36.2-36.2-100.9-77.6-188.6-120.1
			c-149.4-72.4-214.6-142.6-228.4-246.9c-3.1-23.1-6.6-49.3-7.6-58.2c-2.5-17.3-18.9-38.8-29.6-38.8c-4.1,0-8.7,4.2-10.7,9.4
			c-2,4.7-6.6,75-10.2,155.7c-7.1,146.8-14.3,206-30.6,248c-5.1,12.6-7.6,24.1-5.6,25.7c1.5,1.6,13.8-5.2,26.5-16.3
			c31.1-24.1,37.7-24.6,34.2-0.5c-2,14.2-1,20.4,6.1,25.7c5.6,4.2,8.2,10.5,6.1,15.2c-3.1,8.4-52,39.8-96.9,61.9
			c-13.3,6.8-24,15.7-24,19.9c0,10,51.5,110.1,76,147.3c30.6,47.2,45.4,51.9,166.7,57.1c110.6,4.7,139.7,11.5,195.8,43.5
			c69.3,39.8,168.2,118,168.2,133.2c0,4.2-1,7.3-2.5,7.3c-9.2,0-44.9-19.9-98.9-54.5c-102.5-66.1-171.8-97.5-215.6-97.5
			c-11.7,0-14.3,2.1-14.3,12.6c0,6.3,2.5,19.4,5.6,28.8c3.1,9.4,4.6,18.3,3.1,19.9s-15.8-11-31.1-27.8c-22.9-25.2-28-28.8-28.5-19.9
			c0,16.3-9.7,18.9-83.1,22.5c-63.7,3.1-65.8,3.7-78,17.8c-29.1,34.6-40.8,141.6-19.9,184.6c22.4,47.7,81.1,89.7,178.4,127.9
			c22.4,8.9,48.9,22.5,58.1,30.9c15.3,12.6,16.3,16.3,11.2,25.7c-14.3,27.8,2.5,114.8,40.3,208.7c47.4,116.9,79,157.3,145.3,186.1
			c58.1,24.6,121.3,41.9,168.2,45.1c36.7,3.1,41.8,2.1,53-7.9c14.8-13.1,12.2-13.1,46.9-2.6c40.8,12.6,136.1,64,208,112.2
			c113.7,76.5,130,81.8,268.1,89.1c131,7.3,200.9,14.7,251.3,26.7c23.4,5.8,55.6,12.6,71.4,15.2
			C2707.6,11866.7,2831,11861.9,2866.7,11852z M2872.8,10937.1c21.9-5.8,64.2-22.5,93.8-36.7c81.6-38.8,96.9-42.5,206.5-46.7
			c94.3-3.7,97.4-3.7,124.4-18.9c45.9-25.7,86.7-81.8,158-215.5c72.4-136.3,92.3-201.3,105-339.7c9.7-103.8,24-196.6,42.3-272.6
			c13.3-56.6,13.8-62.9,13.8-207.6c0-306.7-26-442-158.5-830.5c-96.3-281.5-164.1-439.4-216.1-504.9
			c-62.7-78.1-242.7-217.6-405.3-313.5c-81.6-48.8-216.7-114.8-280.4-138.4c-91.2-33-149.9-44-237-44c-103,0-166.2,16.3-254.9,65
			c-179.4,99.6-471,388.5-603.6,598.2c-58.6,92.8-66.8,121.6-97.4,346c-50.5,372.8-66.8,592.5-54,738.7
			c18.4,205.5,62.7,467.1,82.1,479.2c2.5,1.6,17.3,6.3,33.1,10.5c59.1,16.3,177.9,81.8,256.4,142.1c20.4,16.3,57.1,48.8,81.1,73.4
			c29.1,29.4,54.5,49.8,74.9,59.8c31.6,15.7,47.4,18.9,171.3,34.6c62.7,7.9,120.3,19.9,144.8,30.9c32.1,14.7-41.3-53.5-80.5-73.9
			c-13.3-7.3-37.2-15.2-53-17.8c-49.4-8.4-62.7-38.8-20.9-48.2c22.9-5.2,100.4,4.7,136.1,17.3c75.4,26.7,136.1,91.2,276.3,294.7
			c85.1,123.7,166.2,189.3,270.2,219.2C2729.1,10951.2,2819.8,10950.7,2872.8,10937.1z M1131.9,10009.1c13.3-7.3,24-30.4,26-55.6
			c1.5-18.9,0.5-20.4-11.2-20.4c-17.3,0-15.3-8.9,18.4-73.4c45.9-89.1,57.1-158.9,61.7-392.7c3.6-174.1,8.2-163.1-47.9-110.6
			c-17.8,16.3-34.7,28.8-37.2,27.8c-3.1-1-0.5-11.5,6.1-25.2c8.7-16.8,21.4-29.9,49.4-49.3c53.5-37.7,58.6-46.1,60.7-103.3
			c1.5-38.8,0.5-47.2-6.1-49.8c-46.4-18.4-144.8,123.7-201.9,290.5c-24,69.2-30.6,124.3-30.6,258c0,180.4,13.3,244.8,59.1,288.4
			C1100.8,10014.9,1114.1,10018.5,1131.9,10009.1z M3860.2,9675.6c27.5-19.4,42.8-50.9,49.4-103.3c13.3-98.6-25.5-268.4-90.2-391.6
			c-81.1-155.2-218.7-314.6-270.7-314.6c-17.8,0-22.9,13.1-20.4,49.8c4.6,58.7,31.6,97,68.8,97c23.4,0.5,54,17.8,77,44.6
			c11.7,13.6,20.4,26.2,19.4,27.8c-1.5,1-13.8-4.7-27-13.6c-28-18.9-58.6-32.5-70.9-32.5c-12.7,0-7.1,41.4,15.3,115.3
			c38.7,126.4,53.5,182.5,58.6,221.8c3.1,22.5,10.2,49.8,15.3,60.8c11.2,22.5,39.3,49.3,48.4,46.1c4.1-1.6,5.6-35.1,5.6-111.7
			c0-81.3,1.5-112.7,6.6-121.6c10.2-17.8,19.4-7.3,32.6,37.2c13.3,46.1,10.7,101.2-8.7,166.2c-17.8,61.3-15.8,71.3,28.5,115.3
			c32.1,32.5,43.3,52.4,30.1,52.4c-11.7,0-40.3-15.2-58.1-31.5c-10.2-9.4-19.9-15.7-21.4-14.2c-1.5,1.6,2,18.3,7.6,37.7
			c6.1,19.4,10.7,41.9,10.7,49.8c0,24.1,12.7,33,44.4,30.4C3830.7,9691.9,3844.9,9686.6,3860.2,9675.6z M5273.3,9204.8
			c26-26.7,20.9-95.9-20.4-289.9c-25.5-118.5-33.1-177.2-27.5-208.1c2.5-12.1,4.1-23.1,4.6-25.2c0-2.1,4.6-6.3,10.2-9.4
			c30.1-16.8,97.4,46.1,213.1,197.7c102.5,134.2,148.9,187.2,165.7,189.3c13.3,1.6,13.8,0.5,13.8-21c0-16.8-6.1-35.1-22.4-68.2
			c-20.4-41.4-42.3-76-161.1-253.2c-67.8-100.7-93.8-156.2-82.1-175.1c12.2-19.4,87.2,10,211.6,82.8
			c163.6,96.5,259.5,129.5,214.1,74.4c-20.4-25.2-73.4-67.6-217.2-175.6c-125.4-93.8-141.7-108-141.7-125.3
			c0-28.8,96.3-27.8,231.9,2.1c90.2,19.9,161.6,30.9,174.9,27.3c16.3-4.2,18.4-18.4,5.1-28.8c-15.3-12.1-105-51.4-172.3-75
			c-118.3-41.9-164.1-72.9-277.8-186.1c-102-101.2-142.2-128.5-223.3-151.5c-48.9-13.6-67.3-23.1-78-39.8
			c-4.6-7.3-12.2-43-17.8-84.4c-11.7-86-20.4-136.3-43.3-243.3c-26-123.2-32.6-175.6-37.7-300.9c-3.1-63.4-8.7-138.9-12.7-167.8
			c-26.5-185.1-90.2-328.7-229.9-520.1c-61.2-84.4-91.2-115.3-119.3-122.7c-31.1-8.4-186.6-3.7-246.7,7.3
			c-62.7,12.1-89.7,24.6-89.7,42.5c0,19.4,9.2,35.7,53,91.8c21.4,27.3,43.8,61.9,50,77.1c6.6,15.2,13.8,27.8,16.3,27.8
			s16.8-8.4,31.6-18.9c48.9-34.6,58.6-14.7,32.6,66.1c-27.5,86.5-30.1,135.8-12.2,212.3c27.5,115.9,66.8,208.1,317.1,750.3
			l143.2,309.9l-40.3,104.3c-60.7,156.8-79.5,231.2-86.7,342.9c-7.1,106.4-15.8,140-72.9,283.1c-25,62.9-27,73.4-13.3,73.4
			c26.5,0,109.6-76.5,125.4-115.3c23.4-57.7,42.3-87,91.8-146.8c60.2-72.9,102-135.3,119.3-178.8c8.7-22.5,11.2-39.3,11.7-81.8
			c0.5-55.6,4.6-67.1,21.4-63.4c23.4,4.7,28.5,87,9.7,162c-10.2,40.4-21.9,64.5-45.4,93.3c-27.5,34.1-25.5,47.2,20.4,142.6
			c62.2,129,84.1,191.4,137.1,395.3c27.5,105.9,37.7,133.7,48.9,133.7C5258.5,9217.4,5266.7,9211.6,5273.3,9204.8z M1797.2,8137.9
			c11.7-5.2,26-17.3,32.6-26.7c11.7-16.8,11.7-16.8,1.5-26.7c-11.2-11.5-102-30.9-191.7-40.9c-64.2-7.3-77-2.6-79,29.4
			c-1,12.1,0.5,26.7,3.6,32c8.2,15.7,37.2,27.3,88.2,34.6C1722.8,8149.9,1772.2,8149.4,1797.2,8137.9z M2888.6,8036.7
			c14.3-5.2,36.2-18.9,47.9-29.9c19.4-17.8,21.4-21,15.3-28.8c-9.2-11.5-46.9-11-105.5,1.6c-51.5,11-78.5,23.1-78.5,35.1
			c0,10.5,23.4,32.5,37.2,35.1C2822.9,8053.5,2860.1,8047.7,2888.6,8036.7z M2003.1,7977.4c90.7-45.6,155-70.3,216.7-83.4
			c97.4-19.9,169.2-15.2,316.1,21.5c118.8,29.9,171.3,32.5,229.4,12.6c79.5-27.8,92.3-40.9,87.7-89.7c-4.6-41.4-13.8-62.4-39.8-91.8
			c-56.6-62.9-172.3-93.8-353.8-93.3c-268.1,0.5-473.1,77.6-630.1,237.5c-62.2,62.9-68.8,90.7-26.5,105.4
			c17.3,5.8,91.2,23.1,107.1,25.2C1912.9,8021.5,1955.2,8002.1,2003.1,7977.4z M3062.4,7888.3c47.9-52.4,77.5-127.4,95.3-244.8
			c10.2-65.5,15.8-270,10.2-395.3l-3.6-87l-34.7,67.6c-51,101.7-87.7,152.6-114.7,161c-6.1,1.6-18.9-1-30.6-7.3
			c-11.2-5.8-20.9-10.5-21.4-10.5c-5.6,0,1,34.6,16.8,87.6c46.4,154.7,44.9,144.2,44.4,312.5c-0.5,82.8,1,150.5,3.6,150.5
			C3029.8,7922.4,3045.6,7907.2,3062.4,7888.3z"/>
		<path class="st10" d="M2296.3,11755.5c-22.4-3.1-24-3.7-12.7-7.9c17.8-6.3,30.6-18.9,30.6-30.4c0-13.1-28-25.2-57.6-25.2
			c-76,0-193.7-64-291.1-157.8c-19.4-18.3-56.1-58.2-81.6-88.6c-84.6-101.2-136.6-157.3-170.8-184.6c-41.3-33-71.9-62.4-71.9-68.7
			c0-2.6,8.7-3.7,18.9-2.1c37.2,6.3,126.9,78.1,276.8,220.7c108.6,103.3,137.1,127.9,191.2,163.1c110.1,70.8,218.7,95.9,583.2,133.2
			c112.7,12.1,151.9,17.8,158,23.6c10.2,10.5,5.6,14.2-23.4,19.9C2816.7,11756.6,2333.5,11760.8,2296.3,11755.5z"/>
		<path class="st10" d="M2561.3,11636c-8.2-1.6-39.3-7.9-68.3-15.2c-93.3-22.5-172.8-75-284.5-188.7c-58.6-59.8-70.9-75.5-57.1-75.5
			c7.1,0,44.4,26.2,100.4,71.3c73.4,59.2,138.1,94.4,308.4,166.7c37.7,16.3,61.2,33,57.1,40.4
			C2614.4,11639.6,2590.4,11640.2,2561.3,11636z"/>
		<path class="st10" d="M2230,11571c-80.5-42.5-191.2-124.3-191.2-141c0-3.1,4.6-10,10.7-16.3c7.1-7.3,9.7-15.2,8.2-23.6
			c-2.5-15.7,0.5-15.7,21.4,0c18.4,14.2,199.3,181.9,209.5,194.5C2300.8,11599.8,2272.3,11593,2230,11571z"/>
		<path class="st10" d="M2887.6,11587.2c-151.9-6.8-241.1-22.5-302.3-54.5c-25-13.1-45.9-32.5-40.3-37.7c1.5-1.6,17.3,0.5,35.2,5.2
			c83.1,21,275.3,37.2,394.1,33c134.6-4.7,231.4-26.7,321.2-73.4c58.1-29.9,92.3-55.1,162.6-119.5c33.6-30.9,62.2-55.6,63.2-54.5
			c3.1,2.6-13.3,74.5-25,111.2c-19.9,62.4-57.6,97-156.5,142.6C3236.8,11586.7,3137.4,11597.2,2887.6,11587.2z"/>
		<path class="st10" d="M1678.4,11447.2c-13.3-10.5-33.1-27.8-43.3-38.8c-24.5-26.2-43.3-31.5-55.6-16.3
			c-10.2,13.1-27.5,15.2-32.1,3.7c-8.2-22,20.9-60.3,45.9-60.3c25.5,0,78,47.2,115.7,104.9
			C1729.4,11471.3,1714.1,11475,1678.4,11447.2z"/>
		<path class="st10" d="M2938.6,11409.5c-2-3.7-1.5-8.9,0.5-11c8.2-8.4,63.2-20.4,118.3-26.2c127.4-14.2,199.8-40.9,244.7-91.8
			c30.1-33.6,43.3-66.1,52-125.8c10.2-73.4,13.8-75.5,31.6-16.8c15.3,51.9,15.8,117.4,1,150.5c-19.9,44.6-60.2,74.4-122.3,91.2
			C3169,11404.8,2948.3,11425.2,2938.6,11409.5z"/>
		<path class="st10" d="M2775.4,11336.1c-88.7-17.8-110.1-25.2-155.5-53c-86.7-53-191.2-174.1-323.7-374.9
			c-43.3-65.5-122.3-174.6-146.3-201.9c-6.6-7.3-19.4-18.9-28-25.2c-17.8-13.1-22.4-27.3-9.2-27.3c12.7,0,131,121.6,277.8,285.7
			c148.9,166.2,261.5,281.5,296.2,304.1c56.1,36.7,154.5,60.3,249.3,60.3c64.2-0.5,113.2-8.9,181-31.5c28-8.9,64.7-17.8,81.6-19.9
			c28.5-2.6,30.1-2.1,23.4,6.3c-10.2,13.1-56.6,35.7-105,52.4c-72.4,24.1-129,35.1-198.8,37.2
			C2860.6,11350.8,2842.2,11349.2,2775.4,11336.1z"/>
		<path class="st10" d="M2295.2,11234.9c-74.9-50.9-202.4-195-248.8-282.1c-5.6-10.5-2.5-7.3,53,58.7c58.1,69.2,71.9,76.5,71.9,37.8
			c0-33,10.7-24.1,71.4,59.8c25.5,35.7,62.2,81.8,82.1,102.8c19.4,21,35.2,40.9,35.2,44.6C2360,11269.5,2333,11260.6,2295.2,11234.9
			z"/>
		<path class="st10" d="M3578.3,11104.9c0-2.6,26-22.5,57.6-44c31.6-21,66.8-50.3,79-64c11.7-14.2,25.5-30.9,31.1-37.2
			c27.5-32,79-15.2,69.8,23.1c-8.2,33-87.2,95.4-148.3,116.9C3637,11110.6,3578.3,11113.8,3578.3,11104.9z"/>
		<path class="st10" d="M1693.7,11057.7c-6.6-2.6-11.7-7.3-11.7-10.5c0-10.5-43.3-54-108.1-108.5c-35.7-29.9-68.3-60.3-72.9-67.6
			c-7.1-11.5-7.1-12.6,1-12.6c26,0,187.6,144.2,209.5,186.6C1720.2,11061.9,1714.1,11066.1,1693.7,11057.7z"/>
		<path class="st10" d="M3519.7,11013.6c-40.3-9.4-83.6-23.1-73.9-23.6c74.9-4.7,125.4-12.1,146.3-21.5
			c50.5-23.1,82.6-68.2,129-182.5c35.2-85.5,50.5-116.4,57.6-116.4c13.8,0-22.4,146.8-53,215
			C3679.3,10987.9,3606.9,11033,3519.7,11013.6z"/>
		<path class="st10" d="M3438.1,10905.6c-1.5-3.1,14.8-24.6,36.7-48.8c44.4-47.2,72.4-87,113.7-158.3
			c56.1-97.5,108.1-157.3,163.6-188.2c31.1-17.8,32.6-19.9-27,50.9c-49.4,59.2-81.6,107-118.3,176.2c-36.7,69.2-62.2,107-90.2,136.3
			C3486.1,10905.1,3447.3,10920.8,3438.1,10905.6z"/>
		<path class="st10" d="M1991.9,10888.3c-12.2-9.4-36.7-29.9-55.1-44.6c-46.4-38.8-121.8-75-208-100.1
			c-82.6-24.1-124.4-41.4-121.8-49.8c3.1-9.4,73.4-13.6,126.9-7.9c84.1,8.9,184.5,37.8,219.2,62.9c17.8,13.1,17.8,18.9,1.5,26.7
			c-20.9,9.4-15.8,25.2,25.5,74.4c20.9,24.6,39.3,47.7,40.8,50.3C2027.1,10910.9,2013.3,10905.1,1991.9,10888.3z"/>
		<path class="st10" d="M1761,10289.6c-74.9-16.8-129.5-50.3-176.4-108.5c-39.3-48.2-64.2-105.9-48.4-112.2
			c10.2-4.2,29.6,7.3,77,45.1c22.4,17.8,50,37.2,61.2,43.5c54,28.8,207.5,9.4,394.6-49.3c173.3-54.5,184.5-57.1,209-46.7
			c17.8,7.3,36.2,41.4,36.2,67.1c0,44.6-74.9,89.7-218.7,132.1C1979.2,10295.4,1839,10307.4,1761,10289.6z"/>
		<path class="st10" d="M2831.5,10144.9c-88.7-6.3-94.3-7.9-108.1-36.2c-9.2-18.3-11.7-32-11.7-66.6v-43.5h284.5h283.9l53.5-55.6
			c57.1-58.7,117.2-112.2,126.9-112.2c3.1,0,5.6,5.2,5.6,12.1c0,17.3-36.7,124.3-52,151c-45.9,80.2-119.8,125.3-237,144.2
			C3116,10147.5,2924.3,10151.7,2831.5,10144.9z"/>
		<path class="st10" d="M1661.1,9920c-52.5-8.9-99.4-42.5-125.9-88.6c-11.2-19.9-13.8-30.4-13.8-60.8c0-43.5,13.3-70.8,51-107
			c47.4-44.6,111.1-65.5,219.2-71.3c70.9-3.7,139.7-13.6,203.9-29.4c32.1-7.3,57.6-10.5,84.6-8.9c34.2,1.6,44.4,4.7,88.2,26.7
			c27,13.6,58.6,34.6,69.8,45.6c20.4,19.9,20.9,22,18.9,46.1c-1.5,15.2-12.2,47.2-27,79.2c-13.3,29.4-22.9,55.1-20.9,56.6
			c1.5,1.6,15.3-0.5,31.1-5.2c15.3-4.2,28-5.8,28-3.7c0,11-33.1,42.5-57.6,54.5C2116.8,9899,1776.3,9939.9,1661.1,9920z
			 M1777.8,9859.1c15.3-11,14.3-32-2.5-50.9c-12.7-13.1-14.3-18.3-14.3-52.4c0-21,2-49.8,4.6-64.5c5.6-35.1-2.5-44-39.8-44
			c-54,0-131,56.6-142.2,104.3c-8.7,36.2,42.3,86,111.1,108.5C1723.8,9869.6,1764.1,9869.1,1777.8,9859.1z M1962.4,9839.2
			c64.2-10.5,120.8-27.8,155.5-46.7c39.3-21.5,68.8-63.4,72.9-102.2c2-23.1,0.5-27.3-13.8-44c-18.9-22.5-52.5-38.3-98.9-46.1
			c-36.7-6.8-65.3-4.2-74.4,7.3c-5.6,6.8-1.5,14.7,42.8,78.6c13.8,19.4,17.8,30.4,17.8,47.7c0,25.7-12.2,60.3-21.9,60.3
			c-3.6,0-10.7-13.6-16.8-29.9c-5.6-16.3-12.7-30.4-15.8-31.5c-3.6-1.6-10.7,14.7-17.8,38.8c-13.8,47.2-20.4,51.4-48.9,30.9
			c-38.7-27.3-72.4-29.9-99.9-7.9c-18.9,15.2-18.4,38.8,1,45.6C1864,9848.1,1912.4,9847.6,1962.4,9839.2z M1839,9695
			c25.5-17.8,51-23.1,96.3-19.4c59.1,4.7,79.5-8.4,50-32.5c-17.8-14.7-43.3-18.4-80-11.5c-61.2,11.5-103.5,40.9-94.3,65
			C1815,9707.6,1822.7,9707.1,1839,9695z"/>
		<path class="st10" d="M2758.6,9794.1c-37.2-4.2-62.2-15.2-62.2-27.8c0-10.5,11.2-19.4,23.4-19.4c16.3,0,27.5-5.2,27.5-13.1
			c0-4.2-25-35.1-56.1-69.2l-56.1-61.9l24.5-22.5c58.1-55.1,122.3-107,146.8-119.5c25.5-13.1,29.6-13.1,82.1-10
			c55.6,3.7,147.3-3.7,269.2-21c100.4-14.2,119.8-10.5,177.4,28.8c42.8,29.4,78,66.1,83.1,86.5c7.6,32-26.5,95.4-79,145.8
			c-42.8,41.4-78.5,52.4-243.2,76.5C2924.8,9792.6,2822.3,9800.9,2758.6,9794.1z M2915.6,9715.5c6.1-4.2,6.6-6.8,1-14.2
			c-40.3-58.2-43.8-124.3-8.2-172c9.7-13.1,16.3-26.2,14.8-28.8c-10.2-17.3-89.7,6.3-154.5,46.1c-43.8,27.3-59.1,43.5-54.5,59.2
			c5.1,15.7,40.8,55.1,68.8,74.4C2830,9713.9,2893.2,9730.2,2915.6,9715.5z M3052.3,9709.2c19.4-10,19.9-25.7,1-48.2
			c-18.9-21.5-43.3-28.8-66.8-18.9c-17.8,7.9-25,19.4-25,40.4c0,17.3,3.6,23.6,17.8,32.5C2991.6,9722.3,3031.9,9719.2,3052.3,9709.2
			z M3222,9675.6c38.7-12.1,63.2-25.7,88.7-50.3c39.8-37.2,42.8-78.1,8.2-113.8c-25.5-26.2-58.6-37.7-117.8-40.9
			c-62.7-3.7-68.3,1-44.9,38.3c32.6,52.4,41.8,98.6,29.1,145.2c-5.1,18.9-3.1,29.9,5.1,29.9C3192.4,9684,3206.7,9680.4,3222,9675.6z
			 M2952.8,9578.6c6.1-3.1,18.4-12.6,26.5-21c20.4-19.9,50-32,67.8-27.8c7.6,2.1,24.5,8.9,37.7,15.7c29.6,15.2,39.8,15.7,39.8,2.1
			c0-14.7-20.9-33.6-44.9-40.9c-32.6-10-87.7-7.9-106.5,4.2c-17.3,10.5-37.2,44.6-37.2,62.9C2936,9586,2937.6,9586.5,2952.8,9578.6z
			"/>
		<path class="st10" d="M2583.8,9465.9c-15.8-36.2-21.4-86.5-18.4-156.8c4.6-91.8,23.4-147.3,40.3-116.9c5.1,8.9,6.6,43.5,6.6,140.5
			c0,126.4-2.5,157.3-13.3,157.3C2596.5,9490,2589.4,9479,2583.8,9465.9z"/>
		<path class="st10" d="M2133.1,9109.9c-10.2-15.7-19.9-38.8-22.4-51.4c-7.6-44,13.8-91.2,50.5-111.2c7.1-3.7,29.6-9.4,50-12.1
			c39.3-5.8,70.9-21,92.3-45.1c22.9-25.2,42.8-26.7,140.2-11c47.9,7.3,102.5,16.3,121.3,18.9c18.9,3.1,43.8,10.5,56.1,16.8
			c18.4,10,23.4,15.7,30.6,37.7c15.3,46.1,8.7,138.9-10.2,138.9c-16.8,0-31.6-47.7-31.6-101.7c0-39.8-3.1-41.9-44.4-37.2
			c-64.7,7.9-86.7,2.6-141.2-33c-39.3-25.7-49.4-23.1-100.9,23.6c-26.5,23.6-64.2,42.5-103.5,50.9c-50.5,11-53.5,15.7-53.5,77.1
			C2166.3,9148.7,2161.2,9155,2133.1,9109.9z"/>
		<path class="st10" d="M1447.5,9100.5c0-32.5,47.4-177.7,66.3-202.9c8.7-11,10.7-12.1,15.3-5.2c2.5,4.2,5.1,12.1,5.1,17.8
			c0,16.3-30.1,102.8-53.5,154.1C1458.7,9111.5,1447.5,9124.1,1447.5,9100.5z"/>
		<path class="st10" d="M1911.9,8878.7c-15.3-4.2-35.2-12.6-44.4-18.3c-22.9-14.2-83.1-81.8-86.7-97.5c-4.1-16.8,6.1-27.8,27-27.8
			c20.4,0,42.3-19.4,42.3-38.3c0-51.9,128-189.8,222.3-239.1c39.3-20.4,101.4-38.8,180.5-53c87.2-15.7,253.4-20.4,318.1-8.9
			c74.4,13.6,150.9,56.1,227.4,126.9c44.9,41.4,86.7,71.3,99.9,71.3c5.6,0,15.8-1.6,24-3.7c12.7-3.1,13.8-2.1,13.8,12.1
			c0,32-54,103.3-116.2,154.1c-58.6,48.2-73.9,51.9-261,57.1c-201.4,6.3-285,15.2-400.2,42.5
			C2029.1,8887.1,1962.9,8892.9,1911.9,8878.7z M2360,8745.5c60.2-4.7,217.2-13.6,299.2-17.3c26-1,39.8-4.2,45.4-10
			c7.6-7.9,7.1-8.9-3.6-15.2c-9.2-5.2-44.9-7.9-137.1-8.9c-214.6-3.7-379.8,17.8-377.7,48.8C2186.7,8755,2228.5,8755.5,2360,8745.5z
			 M2010.8,8690.5c173.8-54.5,280.9-69.2,596.4-83.9c100.9-4.7,189.1-10,195.2-11c10.2-2.1,3.1-8.9-46.9-44.6
			c-66.3-46.7-112.1-73.9-145.3-86c-39.3-14.2-140.7-19.9-233.5-13.6c-228.9,16.3-340.5,68.7-452.2,211.8
			c-32.6,41.9-31.6,47.7,8.7,44C1950.6,8705.7,1985.8,8698.4,2010.8,8690.5z"/>
		<path class="st10" d="M3275.5,8836.2c-64.7-94.9-91.8-185.1-32.6-109.6c24,30.4,75.4,127.9,75.4,142.1
			C3318.4,8887.1,3301.5,8874,3275.5,8836.2z"/>
		<path class="st10" d="M1155.9,9780c-45.9-49.8-68.3-164.6-41.8-211.3c17.8-30.9,27.5-16.8,27.5,41.9c0,37.2,9.7,86.5,25.5,130
			c10.7,28.8,13.3,53.5,6.1,53.5C1170.7,9794.1,1163,9787.8,1155.9,9780z"/>
		<path class="st10" d="M1126.3,7767.7c0-5.2,23.4-33,52.5-62.4c44.9-45.1,56.1-59.8,73.9-97.5c31.6-66.1,39.8-102.2,65.8-304.1
			l9.2-70.8l4.1,76c7.1,127.4-9.2,221.3-56.1,318.8c-33.1,69.2-94.3,134.7-135.6,145.8C1128.9,7776.1,1126.3,7775.1,1126.3,7767.7z"
			/>
		<path class="st10" d="M1009.1,7546.5c-25.5-62.9-40.8-153.6-58.6-344.5c-8.7-92.8-10.2-205.5-3.1-209.7
			c10.7-6.8,48.4,215.5,77,452.5c11.2,92.8,12.7,142.1,5.6,142.1C1027.4,7586.8,1017.7,7568.5,1009.1,7546.5z"/>
		<path class="st10" d="M3644.6,7558.5c0-11.5,48.4-75,114.2-150.5c53.5-60.8,69.3-75.5,69.3-64c0,2.1-9.7,20.4-21.4,40.4
			C3751.7,7480.9,3644.6,7595.8,3644.6,7558.5z"/>
		<path class="st10" d="M731.3,7471c-22.4-20.4-38.2-48.2-55.1-97c-25.5-72.9-27-120.6-3.1-91.2c19.9,24.1,91.2,179.8,91.2,198.7
			C764.4,7492,749.6,7487.2,731.3,7471z"/>
		<path class="st10" d="M2205.5,7008.6c-5.1-13.6-4.6-177.7,1-186.1c6.6-11.5,10.7,26.2,10.2,98.6
			C2216.2,6992.8,2212.1,7024.8,2205.5,7008.6z"/>
		<path class="st10" d="M4003.5,6949.8c-4.1-16.3,10.2-106.4,17.8-114.3c4.1-4.2,8.7-2.1,16.3,6.3c10.2,11.5,15.8,12.1,36.2,3.1
			c26.5-11,5.6,49.3-32.1,93.8C4018.3,6966.1,4008.1,6969.2,4003.5,6949.8z"/>
		<path class="st10" d="M3048.7,6884.8c-9.2-2.6-20.4-7.9-24-12.1c-12.7-13.1-16.8-106.4-17.3-366v-249.6l90.7-45.6
			c49.4-25.2,98.4-47.2,108.1-48.8l17.8-2.6l-15.3,13.1c-8.2,7.3-47.9,32.5-87.7,56.1c-40.3,23.6-73.9,44.6-74.9,46.1
			s-4.6,112.7-7.6,246.9c-3.1,134.2-6.6,259.5-8.2,279.4l-2.5,35.1l105.5,0.5c58.6,0,124.9,2.1,148.3,4.2
			c64.2,6.3,69.8,21,12.7,35.7C3260.2,6886.4,3076.7,6891.6,3048.7,6884.8z"/>
		<path class="st10" d="M2205.5,6569.7c-4.6-17.8-4.1-204.5,1-217.6c6.1-16.3,10.7,31.5,10.2,112.2
			C2216.2,6545.6,2211.6,6591.2,2205.5,6569.7z"/>
		<path class="st10" d="M2205.5,6097.9c-5.1-18.4-4.1-195,1-203.4c2.5-4.7,5.1,3.1,7.1,21c4.6,35.1,3.6,158.9-1,179.8l-3.6,15.7
			L2205.5,6097.9z"/>
		<path class="st10" d="M2180,5537.4c-4.6-22.5-3.6-161.5,1-178.8c3.6-12.6,3.6-12.6,7.1,4.7c4.6,22.5,3.6,161.5-1,178.8
			C2183.6,5554.7,2183.6,5554.7,2180,5537.4z"/>
		<path class="st10" d="M1898.6,5212.3l-15.3-3.7l17.3-3.7c21.4-4.7,181-3.7,201.9,1l15.3,3.7l-20.4,3.7
			C2072,5218.1,1919.5,5217,1898.6,5212.3z"/>
	</g>
	<path class="st9" d="M-26.7,724.2"/>
</g>
<g id="Calque_5">
	<path class="st22" d="M342.3,182c0-0.5,0.9-0.8,2.5-1.5c5.1-2.1,9.6-1.7,10.3-1.6c9.1,0.9,15.9,6.9,16.3,6.4
		c0.5-0.7-13.9-9.9-12.6-13c1.1-2.7,15.2-3.1,21.8,4.7c6.4,7.6,1.3,17.7,9.6,31.5c2.3,3.8,4.7,6.4,5.7,5.9c1-0.4-0.1-3.4,1.4-6.4
		c1.6-3.2,4.4-3.2,6-5c4.2-4.7-0.9-22.7-13.8-32.5c-11.8-8.9-26.8-8.4-26.6-11.1c0.1-1.9,7.3-1.9,7.6-4.5c0.3-2.4-5.3-6.1-9-4.7
		c-2.9,1.1-3.2,5.1-4.4,5c-2.5-0.2,0.7-20.4-5.3-23c-2.9-1.3-8,1.6-9,5.2c-1.6,6.1,8.4,13.8,7.1,15.4c-0.8,0.9-4.1-1.9-6.4-0.5
		c-1.8,1.1-1.7,4.2-1.8,6.9c0,0-0.5,8-6.2,16.8c-5.5,8.6-13.9,9.5-13.3,12.1c0.6,2.8,10.3-0.7,17,5c6.6,5.6,4.2,11.3,9.6,22.8
		c6.5,13.7,13,11.9,25.7,31.1c5.2,7.8,8.8,15.2,9.9,14.7c1.4-0.7-4-15.5-2.5-16.1c1.2-0.5,4.8,8.2,7.6,7.6c2.6-0.6,2.6-9.3,3.7-9.2
		c1,0,0.7,7.2,2.3,7.6c2.1,0.5,9.7-10,7.6-18.7c-3.1-12.7-24-10.1-30.5-25.8c-3.4-8.1,0.8-12.2-3.7-17.5
		C361.3,180.2,342.4,184.1,342.3,182z"/>
	<path class="st23" d="M168.6,117.2c-4.4-0.5-7.3,0.4-8.2,0.7c-2.4,0.8-4,2-5.7,3.1c-2.2,1.5-3.7,3-5.5,4.8
		c-1.8,1.7-2.6,2.6-3.4,3.7c-1.2,1.8-1.7,3.2-2.7,6.1c-1.5,4.4-1.3,5.9-1.3,6.5c0.2,1.2,0.4,2.8,1.4,3.3c1.5,0.8,3.4-1.4,8.2-4.6
		c5.8-3.8,5.6-2.3,9.7-5.4c0.8-0.6,3.3-2.6,7-3.5c1.4-0.4,1.9-0.3,2.1,0c0.3,0.5,0,1.6-3.9,6.6c-2.6,3.3-3.6,4.3-6.1,7.2
		c-3.3,3.9-3.1,4.1-6.3,7.9c-3,3.6-4.6,5.5-6.4,7c-3.9,3.2-7.6,4.7-10.6,5.7c-5.5,2-6.5,1.2-12.9,3.7c-1.5,0.6-3.9,1.6-6.6,3.5
		c-1.7,1.2-3.2,2.2-4.5,4.1c-1.8,2.5-2.2,4.9-2.5,6.8c-1,5.9,0.8,10.6,1.4,12.4c1.3,3.3,2,5.2,3.8,6.5c4,2.8,10,0,18.2-3.9
		c11-5.2,8.8-6.5,20.6-12.6c3.8-2,8.2-4,11.6-8.9c1.6-2.3,2.6-4.7,2.9-4.6c0.3,0.1-0.4,4.3-2.9,8.1c-2.1,3.3-3.9,3.8-10.2,9.2
		c-4.4,3.8-6.8,5.9-6.4,6.6c0.6,1.1,6.9-0.6,12.3-4.1c6.3-4,9.2-9,9.8-8.5c0.6,0.4-1.3,4.7-4.1,8.5c-2.2,3-4.4,4.9-8,7.9
		c-6.8,5.6-10.2,8.4-11.1,8.7c-10.4,3.6-19.7-7.5-27.2-2.6c-2.1,1.4-3.6,3.3-3.6,3.3c-2.7,3.5-1.8,5.7-4.5,9
		c-2.1,2.7-3.4,2.3-3.9,4.1c-0.9,3.2,2.5,7.2,5.2,9.2c3.8,3,8.1,3.5,13.8,3.5c10.5,0.1,25.3-1.5,25.2-3.7c0-2.8-22.5-2.9-22.5-5.9
		c0-1.9,9.1-4.4,18.1-4.1c3.9,0.2,3.9,0.7,11.3,1.8c7.4,1.2,12.8,1.5,22.5,2c7,0.4,10.5,0.6,13.1,0.4c7.3-0.7,12.9-1.2,17.9-5.2
		c2.1-1.7,4.2-4.1,8.8-6.5c2.1-1.1,4.4-2.3,5-1.7c1.8,2-15.3,20.6-15,20.9c0.2,0.2,13.9-10.2,23.4-27.7c2-3.7,4.2-8.4,8.9-14.2
		c2.4-3,5.9-7.2,11.6-11.1c4.1-2.8,11.6-7.8,20.9-7.6c2.7,0.1,8.6,2.1,20.4,6.3c8.5,3,11.6,4.3,13.1,2.8c2-2.1,0.5-8.9-3.2-12.9
		c-12.5-13.6-50.6,4.6-61.9,11.3c-3.1,1.8-9.2,5.5-15.6,12c-5.3,5.5-8.4,10.5-8.6,10.3c-0.2-0.2,6.3-13.5,16.1-24.2
		c22.4-24.5,62.5-36.8,76.2-23.3c8.2,8.2,4.7,23.7,9.8,24.4c3.8,0.5,8.7-7.5,9.7-14.8c0.1-0.6,1.2-9.7-4.6-16.8
		c-6.4-7.9-17-8.1-28.1-8.1c-12.3-0.1-27.8-0.8-42.6,8.9c-6.4,4.2-10.5,9.4-18.6,19.8c-18.9,24.2-17.6,32.9-30.4,40.8
		c-8.9,5.5-17.9,6.4-27.5,7.4c-14.7,1.5-28.2-0.7-28.3-2.2c0-2.1,28.4,5.2,47-11.1c9.4-8.2,9.2-16.3,26.5-37.5
		c5.8-7.1,8.7-10.6,11.3-12.7c20.8-17.3,41.6-4.3,72.2-20.1c6.5-3.4,14.9-7.8,14.8-13.7c-0.1-9.6-22.4-16.5-30-18.8
		c-17.7-5.5-31.9-5.3-50.4-4.8c-23.7,0.6-35.6,0.9-43.3,7c-8.5,6.8-14.2,18.2-21.8,16.6C176.5,120.1,174.5,117.8,168.6,117.2z"/>
	<line class="st24" x1="328.6" y1="149.3" x2="277.7" y2="148.7"/>
	<path class="st25" d="M382.4,131.6"/>
	<ellipse class="st26" cx="187" cy="302.7" rx="3.6" ry="3.7"/>
	<ellipse class="st26" cx="300.3" cy="316" rx="3.6" ry="3.7"/>
	<path class="st10" d="M219.1,407.2c-3.1,1.4-5.7,5.9-4.7,8.8c1.3,3.9,8.5,3.7,29.8,4.7c23.4,1.1,31,2.2,32.2-1.1
		c0.9-2.6-2.6-7-6.2-9.2c-10.2-6.5-23.4,2.1-35.3-1.3c-2.6-0.7-4.1-1-6.9-1.5C221.1,406.4,219.7,406.9,219.1,407.2z"/>
</g>
</svg>
