<?xml version="1.0" encoding="UTF-8"?><svg id="a" xmlns="http://www.w3.org/2000/svg" xmlns:xlink="http://www.w3.org/1999/xlink" viewBox="0 0 1920 1079.97"><defs><style>.f{fill:url(#c);}.g{fill:url(#b);}.h{fill:url(#d);}.i{fill:url(#e);}</style><linearGradient id="b" x1="1012.61" y1="855.1" x2="1053.66" y2="-315.88" gradientTransform="translate(-70.54 561.15) scale(1 -1)" gradientUnits="userSpaceOnUse"><stop offset="0" stop-color="#fff"/><stop offset=".05" stop-color="#fefcfc"/><stop offset=".07" stop-color="#fcf5f4"/><stop offset=".09" stop-color="#f9e8e6"/><stop offset=".11" stop-color="#f5d7d3"/><stop offset=".13" stop-color="#efbfb9"/><stop offset=".14" stop-color="#e8a39a"/><stop offset=".16" stop-color="#e2877b"/><stop offset=".2" stop-color="#d87c6f"/><stop offset=".5" stop-color="#96311f"/><stop offset=".64" stop-color="#7c1400"/><stop offset=".93" stop-color="#9f3b2a"/><stop offset=".94" stop-color="#9f3b27"/><stop offset="1" stop-color="#9f3b26"/></linearGradient><linearGradient id="c" x1="345.83" y1="635.71" x2="356.04" y2="344.49" gradientTransform="translate(-70.54 561.15) scale(1 -1)" gradientUnits="userSpaceOnUse"><stop offset="0" stop-color="#fff"/><stop offset=".05" stop-color="#fefcfc"/><stop offset=".07" stop-color="#fcf5f4"/><stop offset=".09" stop-color="#f9e8e6"/><stop offset=".11" stop-color="#f5d7d3"/><stop offset=".13" stop-color="#efbfb9"/><stop offset=".14" stop-color="#e8a39a"/><stop offset=".16" stop-color="#e2877b"/><stop offset=".31" stop-color="#b95849"/><stop offset=".42" stop-color="#9f3b2a"/><stop offset=".5" stop-color="#9f3b27"/><stop offset=".98" stop-color="#9f3b26"/><stop offset="1" stop-color="#88210e"/></linearGradient><linearGradient id="d" x1="582.08" y1="-640.05" x2="1009.47" y2="551.33" gradientTransform="translate(1758.87 575.26) rotate(-180) scale(1 -1)" gradientUnits="userSpaceOnUse"><stop offset=".17" stop-color="#e2877b"/><stop offset=".23" stop-color="#d27567"/><stop offset=".33" stop-color="#bb5b4a"/><stop offset=".44" stop-color="#ab4835"/><stop offset=".54" stop-color="#a13d29"/><stop offset=".64" stop-color="#9e3a25"/><stop offset=".75" stop-color="#99341f"/><stop offset=".89" stop-color="#8b2510"/><stop offset="1" stop-color="#7c1400"/></linearGradient><linearGradient id="e" x1="776.59" y1="834.8" x2="823.34" y2="-498.74" gradientTransform="translate(1758.87 575.26) rotate(-180) scale(1 -1)" xlink:href="#b"/></defs><path class="g" d="M1919.5,0H2V478.15c59.39-11.63,107.22-22.17,139.39-29.51,68.07-15.53,80.18-19.96,139.32-32.51,73.29-15.56,77.92-13.69,109.89-23.01,58.8-17.14,95.02-38.6,126.87-55.02,92.27-47.54,188.41-97.08,287.7-84.03,28.46,3.74,85.63,34.22,198.79,95.03,102.19,54.91,115.84,66.32,150.84,84.03,154.23,78.02,311.22,69.95,465.51,62.02,74.1-3.81,177.77-14.76,299.69-46.51-.17-149.55-.33-299.09-.5-448.64Z"/><path class="f" d="M560.62,0H0V137.47C37.62,102.25,97.72,57.76,175.77,51.95c69.26-5.16,102.58,23.86,174.35,24.91,48.87,.71,120.95-11.47,210.5-76.86Z"/><path class="h" d="M2,690.03c40.63-41.18,105.99-93.86,192.36-103.59,228.3-25.71,297.51,283.12,544.79,340.17,360.75,83.23,655.57-472.05,1006.74-358.37,83.1,26.9,140.08,81.78,174.11,121.79V243.47c-30.05-3.59-77.14-8.07-134.79-8.4-290.06-1.65-334.91,104.61-504.07,79.79-165.33-24.26-180.53-134.28-417.02-169.39,0,0-63.46-9.42-140.41-8.4C425.56,141.03,118.04,313.42,2,383.46v306.57Z"/><path class="i" d="M1.78,1079.97H1920V520.06c-34.21-5.05-80.23-10.01-134.81-10.53-33.9-.33-74.44-.55-122.17,7.02-61.55,9.77-110.78,28.65-148.85,45.64-224.95,100.38-350.68,264.13-539.23,277.32-114.26,7.99-204.89-42.56-317.36-105.31-186.74-104.18-225.58-210.29-348.26-224.67-67.23-7.88-170.64,10.51-307.53,156.21v414.23Z"/></svg>